<?xml version="1.0" encoding="UTF-8" standalone="no"?>
<!-- Created with Inkscape (http://www.inkscape.org/) -->
<svg
   xmlns:dc="http://purl.org/dc/elements/1.1/"
   xmlns:cc="http://creativecommons.org/ns#"
   xmlns:rdf="http://www.w3.org/1999/02/22-rdf-syntax-ns#"
   xmlns:svg="http://www.w3.org/2000/svg"
   xmlns="http://www.w3.org/2000/svg"
   xmlns:sodipodi="http://sodipodi.sourceforge.net/DTD/sodipodi-0.dtd"
   xmlns:inkscape="http://www.inkscape.org/namespaces/inkscape"
   version="1.0"
   width="100"
   height="100"
   viewBox="0 0 210 297"
   id="svg2452"
   sodipodi:version="0.32"
   inkscape:version="0.46"
   sodipodi:docname="Trichter.svg"
   inkscape:output_extension="org.inkscape.output.svg.inkscape"
   inkscape:export-filename="/Users/michael/Documents/Source/hbci/src/hbcimenu/Symbole/Trichter.png"
   inkscape:export-xdpi="460"
   inkscape:export-ydpi="460">
  <metadata
     id="metadata23">
    <rdf:RDF>
      <cc:Work
         rdf:about="">
        <dc:format>image/svg+xml</dc:format>
        <dc:type
           rdf:resource="http://purl.org/dc/dcmitype/StillImage" />
      </cc:Work>
    </rdf:RDF>
  </metadata>
  <sodipodi:namedview
     inkscape:window-height="703"
     inkscape:window-width="1057"
     inkscape:pageshadow="2"
     inkscape:pageopacity="0.0"
     guidetolerance="10.0"
     gridtolerance="10.0"
     objecttolerance="10.0"
     borderopacity="1.0"
     bordercolor="#666666"
     pagecolor="#ffffff"
     id="base"
     showgrid="false"
     inkscape:zoom="4.6372568"
     inkscape:cx="1.168517"
     inkscape:cy="50.852873"
     inkscape:window-x="0"
     inkscape:window-y="0"
     inkscape:current-layer="svg2452" />
  <defs
     id="defs2475">
    <inkscape:perspective
       sodipodi:type="inkscape:persp3d"
       inkscape:vp_x="0 : 148.5 : 1"
       inkscape:vp_y="0 : 1000 : 0"
       inkscape:vp_z="210 : 148.5 : 1"
       inkscape:persp3d-origin="105 : 99 : 1"
       id="perspective25" />
    <linearGradient
       id="linearGradient3312">
      <stop
         id="stop3314"
         style="stop-color:#c8b7b7;stop-opacity:1"
         offset="0" />
      <stop
         id="stop3316"
         style="stop-color:#c8b7b7;stop-opacity:0"
         offset="1" />
    </linearGradient>
  </defs>
  <path
     d="M 94.130364,18.372646 C 73.795145,18.411229 53.475609,20.820409 33.779837,25.147441 C 17.849036,28.926286 1.5737072,34.01781 -10.577702,44.06051 C -16.415477,48.7884 -20.834119,55.628408 -19.269826,62.740541 C -17.308986,72.178325 -8.1564958,78.890106 0.77387033,83.75991 C 19.36316,93.493808 40.887322,98.209447 62.210447,101.25105 C 82.740641,104.12653 103.60669,104.68977 124.35707,103.83602 C 147.16924,102.6857 170.12171,99.645133 191.54317,92.564764 C 204.01947,88.285309 216.5315,82.520628 224.4117,72.882533 C 228.43478,67.468053 229.3655,60.294302 225.8467,54.511008 C 220.45453,45.02887 209.54944,39.081686 198.90842,34.517007 C 176.02624,25.143125 150.69576,21.138838 125.61997,19.070826 C 115.15914,18.21925 104.62501,18.363911 94.130364,18.372646 z"
     id="path3293"
     style="opacity:1;fill:#c6c6c6;fill-opacity:1;stroke:none;stroke-width:0.80000001;stroke-linecap:round;stroke-linejoin:round;stroke-miterlimit:4;stroke-dasharray:none;stroke-dashoffset:0;stroke-opacity:1" />
  <path
     d="M 124.75909,18.785627 C 124.75909,18.785627 111.03182,63.745664 114.46365,114.6345 L 135.6265,117.35189 C 147.63786,49.911808 179.09618,28.172897 179.09618,28.172897 C 156.78937,21.750017 124.75909,19.279686 124.75909,19.279686"
     id="path3295"
     style="fill:#fafafa;fill-opacity:1;fill-rule:evenodd;stroke:none;stroke-width:1px;stroke-linecap:butt;stroke-linejoin:miter;stroke-opacity:1" />
  <path
     d="M 3.2284141,85.427928 C 3.4883138,86.55713 5.3714957,87.266733 6.1878669,88.23632 C 30.127842,107.24074 51.070839,129.6127 63.873863,155.57806 C 71.972693,172.33145 77.165708,190.13609 79.231795,208.21047 C 80.436462,224.66389 80.637077,241.16139 81.049423,257.64103 C 81.176318,263.17247 81.107756,268.71762 81.192384,274.24137 C 84.30072,278.15369 90.157548,279.15538 95.231423,279.8617 C 103.18413,280.38222 112.02502,280.52799 118.86221,276.46414 C 121.5282,275.08524 120.58699,272.15059 120.9351,269.94575 C 121.85108,249.87397 122.74341,229.78654 124.70833,209.76798 C 126.61232,194.77072 131.24053,180.15137 137.29891,166.0493 C 148.12978,141.31352 166.62481,119.53865 188.59339,101.29182 C 193.64771,96.804877 199.17983,92.807921 204.34174,88.488667 C 203.99974,87.673728 202.64413,88.871421 202.01354,88.876773 C 179.11437,98.276612 153.7016,102.04975 128.57321,103.76592 C 115.03685,104.137 101.45969,104.44308 87.932741,103.72804 C 59.482554,101.90871 30.640949,97.528225 5.1175219,86.045369 C 4.4953141,85.897831 3.8827156,85.341521 3.2284141,85.427928 z"
     id="path2521"
     style="opacity:1;fill:#adadad;fill-opacity:1;stroke:none;stroke-width:1.5;stroke-linecap:round;stroke-linejoin:round;stroke-miterlimit:4;stroke-dasharray:none;stroke-dashoffset:0;stroke-opacity:1" />
  <g
     transform="matrix(2.4487719,0,0,2.1152459,32.376524,-96.822057)"
     id="g2501"
     style="fill:#c9c9c9;fill-opacity:1;stroke:none;stroke-width:0.34999999;stroke-linecap:butt;stroke-linejoin:miter">
    <path
       d="M 27.126643,178.86739 L 26.357883,178.80384 L 24.903883,178.61184 L 23.552083,178.31584 L 22.863283,178.10984 L 22.227483,177.87684 L 21.676083,177.63184 L 21.184683,177.36584 L 20.558483,176.92484 L 20.100383,176.45184 L 19.935983,176.20284 L 19.818783,175.94984 L 19.750883,175.70284 L 19.728783,175.28106 C 19.714653,171.4138 19.700513,169.89717 19.686383,167.11884 L 19.520883,158.77584 L 19.291283,150.86084 L 19.202283,148.51484 L 19.091983,146.22284 L 18.934783,144.06484 L 18.777783,142.54384 L 18.580483,141.02684 L 18.338783,139.48284 L 18.061183,137.94384 L 17.403483,134.81784 L 16.650683,131.69184 L 15.685083,128.16584 L 15.154883,126.43984 L 14.591383,124.74184 L 13.994783,123.07284 L 13.365883,121.43484 L 12.706383,119.82984 L 12.014783,118.25384 L 11.289383,116.69984 L 10.527383,115.16184 L 8.893683,112.13184 L 7.900383,110.43484 L 6.865883,108.76284 L 5.790983,107.11584 L 4.682983,105.50084 L 3.540683,103.91184 L 2.374483,102.36084 L -0.027517947,99.357842 L -1.5783182,97.535842 L -3.1459182,95.774842 L -4.7695182,94.025845 L -6.3966182,92.342845 L -8.0250182,90.721845 L -11.254918,87.672845 L -14.455418,84.848845 L -16.057218,83.502845 C -7.7672331,89.469827 8.2236354,96.162324 17.888623,112.82651 C 28.81615,131.66754 27.738363,161.41525 27.785223,178.88398 L 27.126643,178.86739 z"
       id="path2507"
       style="fill:#c9c9c9;fill-opacity:1;stroke:none" />
  </g>
  <g
     transform="matrix(1.066415,0,0,1.066415,36.237353,-84.398098)"
     id="g2454"
     style="fill:none;stroke:#999696;stroke-width:19.74866258000000130;stroke-linecap:butt;stroke-linejoin:miter;stroke-miterlimit:4;stroke-dasharray:none;stroke-opacity:1">
    <path
       id="path2456"
       style="stroke:#999696;stroke-width:19.74866258000000130;stroke-miterlimit:4;stroke-dasharray:none;stroke-opacity:1"
       d="M -39.238313,153.59281 L -35.560155,156.26261 L -28.210957,161.86405 L -20.794251,167.91178 L -17.055013,171.12706 L -13.318759,174.4653 L -9.5905427,177.93446 L -5.9909167,181.42742 L -2.4298677,185.04138 L 3.0857601,190.99786 L 5.7636652,194.07429 L 8.3866896,197.22608 L 10.930951,200.42945 L 13.399206,203.6963 L 15.774693,207.01273 L 18.055573,210.37873 L 21.806982,216.38878 L 23.556736,219.43942 L 25.222446,222.5218 L 26.810543,225.64781 L 28.32493,228.83134 L 29.769051,232.08033 L 31.139003,235.39082 L 32.432949,238.75881 L 33.650429,242.18235 L 35.867703,249.17622 L 37.596332,255.37668 L 39.106584,261.57712 L 39.744029,264.62975 L 40.299035,267.69229 L 40.752089,270.70127 L 41.112603,273.71819 L 41.473575,277.99861 L 41.726853,282.54481 L 41.931221,287.19814 L 42.458443,302.89762 L 42.838476,317.94898 L 42.935837,335.23008 L 42.986585,336.47252 L 43.142501,336.96244 L 43.411623,337.46427 L 43.78913,337.95816 L 44.841048,338.89637 L 46.27897,339.77109 L 47.407354,340.2987 L 48.673516,340.78467 L 50.133481,341.24682 L 51.715148,341.65543 L 54.819239,342.24254 L 58.158009,342.62337 L 61.620777,342.78801 L 65.092731,342.7285 L 68.828134,342.39337 L 71.533754,341.96684 L 74.300754,341.2984 L 76.6705,340.46136 L 77.67856,339.9873 L 78.55803,339.48348 L 79.520165,338.76744 L 80.222823,338.0137 L 80.656816,337.2322 L 80.877166,336.12395 L 81.458213,319.9221 L 82.383608,303.38756 L 83.57537,285.74025 L 84.121881,279.20459 L 84.447951,276.16188 L 84.852093,273.1271 L 85.354975,270.08043 L 85.949708,267.04765 L 86.939398,262.78508 L 88.092123,258.47888 L 89.371143,254.15483 L 90.742014,249.85062 L 92.250661,245.46705 L 93.864935,241.16283 L 95.596318,236.9439 L 97.447108,232.8182 L 99.410404,228.79366 L 101.48165,224.87226 L 103.6631,221.04607 L 105.97085,217.2774 L 109.82627,211.50736 L 112.77698,207.45108 L 115.86315,203.47612 L 119.08021,199.58447 L 122.40521,195.78606 L 125.82435,192.08681 L 129.31697,188.49268 L 132.86929,185.00765 L 138.53188,179.75731 L 142.37353,176.38137 L 146.21748,173.13633 L 150.06143,170.01429 L 157.67356,164.15104 L 165.20529,158.73208 L 169.34025,155.94164 M -39.236706,153.5948 L -35.898854,155.80838 L -32.248251,157.91885 L -28.31452,159.92022 L -24.125902,161.81248 L -21.205053,163.01052 L -18.190746,164.16095 L -11.908393,166.30712 L -5.3302817,168.25492 L -1.4741637,169.27445 L 2.4568134,170.2305 L 6.6970976,171.17465 L 11.006269,172.04938 L 19.552968,173.5509 L 28.285893,174.79456 L 37.162566,175.78434 L 46.144179,176.5222 L 55.195827,177.01212 L 65.377467,177.26601 L 75.561404,177.2085 L 80.638446,177.0637 L 85.699415,176.83957 L 92.411399,176.41707 L 99.068264,175.85376 L 105.65166,175.14762 M 105.65166,175.14762 C 133.07316,171.88612 155.67695,165.10632 168.97118,156.15551 M 168.97118,156.15551 L 172.05965,153.90224 L 173.51549,152.6923 L 174.86799,151.45658 L 176.02071,150.29027 L 177.077,149.10413 L 178.51905,147.21583 L 179.70391,145.28984 L 180.62242,143.33013 L 181.26308,141.34662 L 181.60982,139.47418 L 181.70626,137.59322 L 181.55471,135.71185 L 181.15516,133.83606 L 180.59488,132.17863 L 179.84398,130.53508 L 178.90712,128.91 L 178.08735,127.70541 L 177.16885,126.51491 L 175.15962,124.29457 L 172.82661,122.13908 L 170.1882,120.05541 L 167.27194,118.04948 L 165.29026,116.82228 L 163.21214,115.6288 L 160.80566,114.34884 L 158.29125,113.11212 L 153.24176,110.87909 L 147.36562,108.62224 L 141.1657,106.55622 L 134.68334,104.68002 L 127.96218,102.99225 L 121.03664,101.49073 L 116.62092,100.64595 L 112.14779,99.872385 L 103.05,98.536689 L 93.793751,97.478882 L 83.954253,96.663659 L 74.032091,96.14755 L 64.068596,95.928967 L 54.107397,96.00791 L 44.192813,96.386364 L 39.178687,96.694801 L 34.194184,97.081782 L 29.418412,97.530652 L 24.434777,98.053903 L 16.62523,99.133725 L 8.7370988,100.44185 L 1.0581573,101.98324 L -6.3649787,103.76245 L -9.9639147,104.7425 L -13.478119,105.78325 L -18.018525,107.26593 L -22.374999,108.85788 L -26.526418,110.55914 L -30.991965,112.63748 L -35.124095,114.85701 L -37.052497,116.01857 L -38.882161,117.21364 L -41.429179,119.06663 L -43.723149,120.98865 L -45.746388,122.97474 L -47.481676,125.01855 L -48.828894,126.97409 L -49.899644,128.96712 L -50.560942,130.72278 C -53.104602,138.68814 -50.684736,130.9901 -50.684736,130.9901 C -53.104602,138.68814 -49.13247,146.53132 -39.236706,153.5948"
       sodipodi:nodetypes="cccccccccccccccccccccccccccccccccccccccccccccccccccccccccccccccccccccccccccccccccccccccccccccccccccccccccccccccccccccccccccccccccccccccccccccccccccccccccccccccccccccccccccccccccccccccccccccccc" />
  </g>
</svg>
