<?xml version="1.0" encoding="UTF-8" standalone="no"?>
<!-- Created with Inkscape (http://www.inkscape.org/) -->
<svg
   xmlns:dc="http://purl.org/dc/elements/1.1/"
   xmlns:cc="http://creativecommons.org/ns#"
   xmlns:rdf="http://www.w3.org/1999/02/22-rdf-syntax-ns#"
   xmlns:svg="http://www.w3.org/2000/svg"
   xmlns="http://www.w3.org/2000/svg"
   xmlns:sodipodi="http://sodipodi.sourceforge.net/DTD/sodipodi-0.dtd"
   xmlns:inkscape="http://www.inkscape.org/namespaces/inkscape"
   version="1.0"
   width="100"
   height="100"
   viewBox="0 0 210 297"
   id="svg2452"
   sodipodi:version="0.32"
   inkscape:version="0.46"
   sodipodi:docname="VerschiedeneTrichter.svg"
   inkscape:output_extension="org.inkscape.output.svg.inkscape"
   inkscape:export-filename="/Users/michael/Documents/Source/hbci/src/hbcimenu/Symbole/VerschiedeneTrichter.png"
   inkscape:export-xdpi="460.79999"
   inkscape:export-ydpi="460.79999">
  <metadata
     id="metadata23">
    <rdf:RDF>
      <cc:Work
         rdf:about="">
        <dc:format>image/svg+xml</dc:format>
        <dc:type
           rdf:resource="http://purl.org/dc/dcmitype/StillImage" />
      </cc:Work>
    </rdf:RDF>
  </metadata>
  <sodipodi:namedview
     inkscape:window-height="703"
     inkscape:window-width="1057"
     inkscape:pageshadow="2"
     inkscape:pageopacity="0.0"
     guidetolerance="10.0"
     gridtolerance="10.0"
     objecttolerance="10.0"
     borderopacity="1.0"
     bordercolor="#666666"
     pagecolor="#ffffff"
     id="base"
     showgrid="false"
     inkscape:zoom="3.2790357"
     inkscape:cx="51.410513"
     inkscape:cy="49.796116"
     inkscape:window-x="0"
     inkscape:window-y="0"
     inkscape:current-layer="g2555" />
  <defs
     id="defs2475">
    <inkscape:perspective
       sodipodi:type="inkscape:persp3d"
       inkscape:vp_x="0 : 148.5 : 1"
       inkscape:vp_y="0 : 1000 : 0"
       inkscape:vp_z="210 : 148.5 : 1"
       inkscape:persp3d-origin="105 : 99 : 1"
       id="perspective25" />
    <linearGradient
       id="linearGradient3312">
      <stop
         id="stop3314"
         style="stop-color:#c8b7b7;stop-opacity:1"
         offset="0" />
      <stop
         id="stop3316"
         style="stop-color:#c8b7b7;stop-opacity:0"
         offset="1" />
    </linearGradient>
  </defs>
  <g
     transform="matrix(0.5137378,0.975449,-0.975449,0.5137378,213.4918,53.177193)"
     id="g2555"
     inkscape:transform-center-x="-3.0259434"
     inkscape:transform-center-y="-2.353515">
    <path
       style="fill:#d35f5f;fill-opacity:1;stroke:none;stroke-width:0.80000001;stroke-linecap:round;stroke-linejoin:round;stroke-miterlimit:4;stroke-dasharray:none;stroke-dashoffset:0;stroke-opacity:1"
       id="path2557"
       d="M 57.348976,36.021168 C 41.856578,36.050563 26.376127,37.885999 11.370892,41.18255 C -0.7659969,44.061465 -13.165365,47.940445 -22.422923,55.591481 C -26.870436,59.193428 -30.236781,64.404492 -29.045023,69.822874 C -27.551156,77.013055 -20.578326,82.126429 -13.774722,85.836492 C 0.3875391,93.252266 16.785733,96.844879 33.030769,99.162121 C 48.671709,101.35281 64.568519,101.78191 80.377214,101.13149 C 97.756672,100.25512 115.24304,97.938654 131.56298,92.544476 C 141.06806,89.28417 150.60036,84.892345 156.60389,77.549556 C 159.66888,73.424532 160.37795,67.959206 157.69715,63.5532 C 153.58911,56.329227 145.28108,51.798362 137.17421,48.320758 C 119.7414,41.179262 100.44336,38.128593 81.339349,36.553078 C 73.369761,35.904303 65.344326,36.014514 57.348976,36.021168 z" />
    <path
       style="fill:#ffd5d5;fill-opacity:1;fill-rule:evenodd;stroke:none;stroke-width:1px;stroke-linecap:butt;stroke-linejoin:miter;stroke-opacity:1"
       id="path2559"
       d="M 80.683483,36.335798 C 80.683483,36.335798 70.225357,70.588628 72.839898,109.35832 L 88.962832,111.42856 C 98.113692,60.049297 122.08024,43.487496 122.08024,43.487496 C 105.08578,38.594221 80.683483,36.712198 80.683483,36.712198" />
    <path
       style="fill:#d35f5f;fill-opacity:1;stroke:none;stroke-width:1.5;stroke-linecap:round;stroke-linejoin:round;stroke-miterlimit:4;stroke-dasharray:none;stroke-dashoffset:0;stroke-opacity:1"
       id="path2561"
       d="M -11.904727,87.107273 C -11.706722,87.967556 -10.272018,88.508168 -9.6500656,89.246848 C 8.5886181,103.72538 24.544052,120.76947 34.298043,140.55119 C 40.468141,153.31477 44.424443,166.87925 45.998492,180.64923 C 46.916269,193.18427 47.069107,205.7529 47.383253,218.30792 C 47.479929,222.52206 47.427694,226.74663 47.492168,230.95491 C 49.860255,233.93551 54.322283,234.69865 58.187818,235.23676 C 64.246594,235.63331 70.982031,235.74437 76.190941,232.64833 C 78.222031,231.59781 77.504972,229.36204 77.77018,227.68228 C 78.468016,212.39059 79.147841,197.08697 80.644819,181.83581 C 82.095365,170.41015 85.621382,159.27238 90.236952,148.52871 C 98.488462,129.68374 112.57892,113.09455 129.31569,99.193189 C 133.16633,95.774811 137.38098,92.729723 141.31358,89.439099 C 141.05303,88.818237 140.02026,89.7307 139.53984,89.734778 C 122.09409,96.896047 102.73336,99.770621 83.589282,101.07808 C 73.27659,101.36079 62.932823,101.59398 52.627313,101.04923 C 30.952522,99.663167 8.9795291,96.325895 -10.465508,87.577671 C -10.939537,87.465268 -11.406246,87.041444 -11.904727,87.107273 z" />
    <g
       style="fill:#e9afaf;fill-opacity:1;stroke:none;stroke-width:0.34999999;stroke-linecap:butt;stroke-linejoin:miter"
       id="g2563"
       transform="matrix(1.8655982,0,0,1.6115013,10.301778,-51.739981)">
      <path
         style="fill:#e9afaf;fill-opacity:1;stroke:none"
         id="path2565"
         d="M 27.126643,178.86739 L 26.357883,178.80384 L 24.903883,178.61184 L 23.552083,178.31584 L 22.863283,178.10984 L 22.227483,177.87684 L 21.676083,177.63184 L 21.184683,177.36584 L 20.558483,176.92484 L 20.100383,176.45184 L 19.935983,176.20284 L 19.818783,175.94984 L 19.750883,175.70284 L 19.728783,175.28106 C 19.714653,171.4138 19.700513,169.89717 19.686383,167.11884 L 19.520883,158.77584 L 19.291283,150.86084 L 19.202283,148.51484 L 19.091983,146.22284 L 18.934783,144.06484 L 18.777783,142.54384 L 18.580483,141.02684 L 18.338783,139.48284 L 18.061183,137.94384 L 17.403483,134.81784 L 16.650683,131.69184 L 15.685083,128.16584 L 15.154883,126.43984 L 14.591383,124.74184 L 13.994783,123.07284 L 13.365883,121.43484 L 12.706383,119.82984 L 12.014783,118.25384 L 11.289383,116.69984 L 10.527383,115.16184 L 8.893683,112.13184 L 7.900383,110.43484 L 6.865883,108.76284 L 5.790983,107.11584 L 4.682983,105.50084 L 3.540683,103.91184 L 2.374483,102.36084 L -0.027517947,99.357842 L -1.5783182,97.535842 L -3.1459182,95.774842 L -4.7695182,94.025845 L -6.3966182,92.342845 L -8.0250182,90.721845 L -11.254918,87.672845 L -14.455418,84.848845 L -16.057218,83.502845 C -7.7672331,89.469827 8.2236354,96.162324 17.888623,112.82651 C 28.81615,131.66754 27.738363,161.41525 27.785223,178.88398 L 27.126643,178.86739 z" />
    </g>
    <g
       style="fill:none;stroke:#8d3c3c;stroke-width:9.95752113;stroke-linecap:butt;stroke-linejoin:miter;stroke-miterlimit:4;stroke-dasharray:none;stroke-opacity:1"
       id="g2567"
       transform="matrix(0.8124489,0,0,0.8124489,13.243153,-42.274781)">
      <path
         sodipodi:nodetypes="cccccccccccccccccccccccccccccccccccccccccccccccccccccccccccccccccccccccccccccccccccccccccccccccccccccccccccccccccccccccccccccccccccccccccccccccccccccccccccccccccccccccccccccccccccccccccccccccc"
         d="M -39.238313,153.59281 L -35.560155,156.26261 L -28.210957,161.86405 L -20.794251,167.91178 L -17.055013,171.12706 L -13.318759,174.4653 L -9.5905427,177.93446 L -5.9909167,181.42742 L -2.4298677,185.04138 L 3.0857601,190.99786 L 5.7636652,194.07429 L 8.3866896,197.22608 L 10.930951,200.42945 L 13.399206,203.6963 L 15.774693,207.01273 L 18.055573,210.37873 L 21.806982,216.38878 L 23.556736,219.43942 L 25.222446,222.5218 L 26.810543,225.64781 L 28.32493,228.83134 L 29.769051,232.08033 L 31.139003,235.39082 L 32.432949,238.75881 L 33.650429,242.18235 L 35.867703,249.17622 L 37.596332,255.37668 L 39.106584,261.57712 L 39.744029,264.62975 L 40.299035,267.69229 L 40.752089,270.70127 L 41.112603,273.71819 L 41.473575,277.99861 L 41.726853,282.54481 L 41.931221,287.19814 L 42.458443,302.89762 L 42.838476,317.94898 L 42.935837,335.23008 L 42.986585,336.47252 L 43.142501,336.96244 L 43.411623,337.46427 L 43.78913,337.95816 L 44.841048,338.89637 L 46.27897,339.77109 L 47.407354,340.2987 L 48.673516,340.78467 L 50.133481,341.24682 L 51.715148,341.65543 L 54.819239,342.24254 L 58.158009,342.62337 L 61.620777,342.78801 L 65.092731,342.7285 L 68.828134,342.39337 L 71.533754,341.96684 L 74.300754,341.2984 L 76.6705,340.46136 L 77.67856,339.9873 L 78.55803,339.48348 L 79.520165,338.76744 L 80.222823,338.0137 L 80.656816,337.2322 L 80.877166,336.12395 L 81.458213,319.9221 L 82.383608,303.38756 L 83.57537,285.74025 L 84.121881,279.20459 L 84.447951,276.16188 L 84.852093,273.1271 L 85.354975,270.08043 L 85.949708,267.04765 L 86.939398,262.78508 L 88.092123,258.47888 L 89.371143,254.15483 L 90.742014,249.85062 L 92.250661,245.46705 L 93.864935,241.16283 L 95.596318,236.9439 L 97.447108,232.8182 L 99.410404,228.79366 L 101.48165,224.87226 L 103.6631,221.04607 L 105.97085,217.2774 L 109.82627,211.50736 L 112.77698,207.45108 L 115.86315,203.47612 L 119.08021,199.58447 L 122.40521,195.78606 L 125.82435,192.08681 L 129.31697,188.49268 L 132.86929,185.00765 L 138.53188,179.75731 L 142.37353,176.38137 L 146.21748,173.13633 L 150.06143,170.01429 L 157.67356,164.15104 L 165.20529,158.73208 L 169.34025,155.94164 M -39.236706,153.5948 L -35.898854,155.80838 L -32.248251,157.91885 L -28.31452,159.92022 L -24.125902,161.81248 L -21.205053,163.01052 L -18.190746,164.16095 L -11.908393,166.30712 L -5.3302817,168.25492 L -1.4741637,169.27445 L 2.4568134,170.2305 L 6.6970976,171.17465 L 11.006269,172.04938 L 19.552968,173.5509 L 28.285893,174.79456 L 37.162566,175.78434 L 46.144179,176.5222 L 55.195827,177.01212 L 65.377467,177.26601 L 75.561404,177.2085 L 80.638446,177.0637 L 85.699415,176.83957 L 92.411399,176.41707 L 99.068264,175.85376 L 105.65166,175.14762 M 105.65166,175.14762 C 133.07316,171.88612 155.67695,165.10632 168.97118,156.15551 M 168.97118,156.15551 L 172.05965,153.90224 L 173.51549,152.6923 L 174.86799,151.45658 L 176.02071,150.29027 L 177.077,149.10413 L 178.51905,147.21583 L 179.70391,145.28984 L 180.62242,143.33013 L 181.26308,141.34662 L 181.60982,139.47418 L 181.70626,137.59322 L 181.55471,135.71185 L 181.15516,133.83606 L 180.59488,132.17863 L 179.84398,130.53508 L 178.90712,128.91 L 178.08735,127.70541 L 177.16885,126.51491 L 175.15962,124.29457 L 172.82661,122.13908 L 170.1882,120.05541 L 167.27194,118.04948 L 165.29026,116.82228 L 163.21214,115.6288 L 160.80566,114.34884 L 158.29125,113.11212 L 153.24176,110.87909 L 147.36562,108.62224 L 141.1657,106.55622 L 134.68334,104.68002 L 127.96218,102.99225 L 121.03664,101.49073 L 116.62092,100.64595 L 112.14779,99.872385 L 103.05,98.536689 L 93.793751,97.478882 L 83.954253,96.663659 L 74.032091,96.14755 L 64.068596,95.928967 L 54.107397,96.00791 L 44.192813,96.386364 L 39.178687,96.694801 L 34.194184,97.081782 L 29.418412,97.530652 L 24.434777,98.053903 L 16.62523,99.133725 L 8.7370988,100.44185 L 1.0581573,101.98324 L -6.3649787,103.76245 L -9.9639147,104.7425 L -13.478119,105.78325 L -18.018525,107.26593 L -22.374999,108.85788 L -26.526418,110.55914 L -30.991965,112.63748 L -35.124095,114.85701 L -37.052497,116.01857 L -38.882161,117.21364 L -41.429179,119.06663 L -43.723149,120.98865 L -45.746388,122.97474 L -47.481676,125.01855 L -48.828894,126.97409 L -49.899644,128.96712 L -50.560942,130.72278 C -53.104602,138.68814 -50.684736,130.9901 -50.684736,130.9901 C -53.104602,138.68814 -49.13247,146.53132 -39.236706,153.5948"
         style="stroke:#8d3c3c;stroke-width:9.95752113;stroke-miterlimit:4;stroke-dasharray:none;stroke-opacity:1"
         id="path2569" />
    </g>
  </g>
  <g
     id="g2546"
     transform="matrix(1.3738882,0,0,1.3199142,9.666561,-36.72546)">
    <path
       style="opacity:1;fill:#5f8dd3;fill-opacity:1;stroke:#2434b6;stroke-width:0.80000001;stroke-linecap:round;stroke-linejoin:round;stroke-miterlimit:4;stroke-dasharray:none;stroke-dashoffset:0;stroke-opacity:1"
       id="path3293"
       d="M 58.25473,42.361447 C 42.762332,42.390842 27.281881,44.226278 12.276646,47.522829 C 0.1397572,50.401744 -12.259611,54.280724 -21.517169,61.93176 C -25.964682,65.533707 -29.331027,70.744771 -28.139269,76.163153 C -26.645402,83.353334 -19.672572,88.466708 -12.868968,92.176771 C 1.2932932,99.592545 17.691487,103.18516 33.936523,105.5024 C 49.577463,107.69309 65.474273,108.12219 81.282968,107.47177 C 98.662426,106.5954 116.14879,104.27893 132.46873,98.884755 C 141.97381,95.624449 151.50611,91.232624 157.50964,83.889835 C 160.57463,79.764811 161.2837,74.299485 158.6029,69.893479 C 154.49486,62.669506 146.18683,58.138641 138.07996,54.661037 C 120.64715,47.519541 101.34911,44.468872 82.245103,42.893357 C 74.275515,42.244582 66.25008,42.354793 58.25473,42.361447 z" />
    <path
       style="fill:#d7e3f4;fill-opacity:1;fill-rule:evenodd;stroke:none;stroke-width:1px;stroke-linecap:butt;stroke-linejoin:miter;stroke-opacity:1"
       id="path3295"
       d="M 81.589237,42.676077 C 81.589237,42.676077 71.131111,76.928907 73.745652,115.6986 L 89.868586,117.76884 C 99.019446,66.389576 122.98599,49.827775 122.98599,49.827775 C 105.99153,44.9345 81.589237,43.052477 81.589237,43.052477" />
    <path
       style="opacity:1;fill:#5f8dd3;fill-opacity:1;stroke:none;stroke-width:1.5;stroke-linecap:round;stroke-linejoin:round;stroke-miterlimit:4;stroke-dasharray:none;stroke-dashoffset:0;stroke-opacity:1"
       id="path2521"
       d="M -10.998973,93.447552 C -10.800968,94.307835 -9.3662639,94.848447 -8.7443115,95.587127 C 9.4943722,110.06566 25.449806,127.10975 35.203797,146.89147 C 41.373895,159.65505 45.330197,173.21953 46.904246,186.98951 C 47.822023,199.52455 47.974861,212.09318 48.289007,224.6482 C 48.385683,228.86234 48.333448,233.08691 48.397922,237.29519 C 50.766009,240.27579 55.228037,241.03893 59.093572,241.57704 C 65.152348,241.97359 71.887785,242.08465 77.096695,238.98861 C 79.127785,237.93809 78.410726,235.70232 78.675934,234.02256 C 79.37377,218.73087 80.053595,203.42725 81.550573,188.17609 C 83.001119,176.75043 86.527136,165.61266 91.142706,154.86899 C 99.394216,136.02402 113.48467,119.43483 130.22144,105.53347 C 134.07208,102.11509 138.28673,99.070002 142.21933,95.779378 C 141.95878,95.158516 140.92601,96.070979 140.44559,96.075057 C 122.99984,103.23633 103.63911,106.1109 84.495036,107.41836 C 74.182344,107.70107 63.838577,107.93426 53.533067,107.38951 C 31.858276,106.00345 9.8852832,102.66617 -9.5597539,93.91795 C -10.033783,93.805547 -10.500492,93.381723 -10.998973,93.447552 z" />
    <g
       style="fill:#87aade;fill-opacity:1;stroke:none;stroke-width:0.34999999;stroke-linecap:butt;stroke-linejoin:miter"
       id="g2501"
       transform="matrix(1.8655982,0,0,1.6115013,11.207532,-45.399702)">
      <path
         style="fill:#87aade;fill-opacity:1;stroke:none"
         id="path2507"
         d="M 27.126643,178.86739 L 26.357883,178.80384 L 24.903883,178.61184 L 23.552083,178.31584 L 22.863283,178.10984 L 22.227483,177.87684 L 21.676083,177.63184 L 21.184683,177.36584 L 20.558483,176.92484 L 20.100383,176.45184 L 19.935983,176.20284 L 19.818783,175.94984 L 19.750883,175.70284 L 19.728783,175.28106 C 19.714653,171.4138 19.700513,169.89717 19.686383,167.11884 L 19.520883,158.77584 L 19.291283,150.86084 L 19.202283,148.51484 L 19.091983,146.22284 L 18.934783,144.06484 L 18.777783,142.54384 L 18.580483,141.02684 L 18.338783,139.48284 L 18.061183,137.94384 L 17.403483,134.81784 L 16.650683,131.69184 L 15.685083,128.16584 L 15.154883,126.43984 L 14.591383,124.74184 L 13.994783,123.07284 L 13.365883,121.43484 L 12.706383,119.82984 L 12.014783,118.25384 L 11.289383,116.69984 L 10.527383,115.16184 L 8.893683,112.13184 L 7.900383,110.43484 L 6.865883,108.76284 L 5.790983,107.11584 L 4.682983,105.50084 L 3.540683,103.91184 L 2.374483,102.36084 L -0.027517947,99.357842 L -1.5783182,97.535842 L -3.1459182,95.774842 L -4.7695182,94.025845 L -6.3966182,92.342845 L -8.0250182,90.721845 L -11.254918,87.672845 L -14.455418,84.848845 L -16.057218,83.502845 C -7.7672331,89.469827 8.2236354,96.162324 17.888623,112.82651 C 28.81615,131.66754 27.738363,161.41525 27.785223,178.88398 L 27.126643,178.86739 z" />
    </g>
    <g
       style="fill:none;stroke:#112a4d;stroke-width:8.14934183;stroke-linecap:butt;stroke-linejoin:miter;stroke-miterlimit:4;stroke-dasharray:none;stroke-opacity:1"
       id="g2454"
       transform="matrix(0.8124489,0,0,0.8124489,13.915541,-36.634385)">
      <path
         sodipodi:nodetypes="cccccccccccccccccccccccccccccccccccccccccccccccccccccccccccccccccccccccccccccccccccccccccccccccccccccccccccccccccccccccccccccccccccccccccccccccccccccccccccccccccccccccccccccccccccccccccccccccc"
         d="M -39.238313,153.59281 L -35.560155,156.26261 L -28.210957,161.86405 L -20.794251,167.91178 L -17.055013,171.12706 L -13.318759,174.4653 L -9.5905427,177.93446 L -5.9909167,181.42742 L -2.4298677,185.04138 L 3.0857601,190.99786 L 5.7636652,194.07429 L 8.3866896,197.22608 L 10.930951,200.42945 L 13.399206,203.6963 L 15.774693,207.01273 L 18.055573,210.37873 L 21.806982,216.38878 L 23.556736,219.43942 L 25.222446,222.5218 L 26.810543,225.64781 L 28.32493,228.83134 L 29.769051,232.08033 L 31.139003,235.39082 L 32.432949,238.75881 L 33.650429,242.18235 L 35.867703,249.17622 L 37.596332,255.37668 L 39.106584,261.57712 L 39.744029,264.62975 L 40.299035,267.69229 L 40.752089,270.70127 L 41.112603,273.71819 L 41.473575,277.99861 L 41.726853,282.54481 L 41.931221,287.19814 L 42.458443,302.89762 L 42.838476,317.94898 L 42.935837,335.23008 L 42.986585,336.47252 L 43.142501,336.96244 L 43.411623,337.46427 L 43.78913,337.95816 L 44.841048,338.89637 L 46.27897,339.77109 L 47.407354,340.2987 L 48.673516,340.78467 L 50.133481,341.24682 L 51.715148,341.65543 L 54.819239,342.24254 L 58.158009,342.62337 L 61.620777,342.78801 L 65.092731,342.7285 L 68.828134,342.39337 L 71.533754,341.96684 L 74.300754,341.2984 L 76.6705,340.46136 L 77.67856,339.9873 L 78.55803,339.48348 L 79.520165,338.76744 L 80.222823,338.0137 L 80.656816,337.2322 L 80.877166,336.12395 L 81.458213,319.9221 L 82.383608,303.38756 L 83.57537,285.74025 L 84.121881,279.20459 L 84.447951,276.16188 L 84.852093,273.1271 L 85.354975,270.08043 L 85.949708,267.04765 L 86.939398,262.78508 L 88.092123,258.47888 L 89.371143,254.15483 L 90.742014,249.85062 L 92.250661,245.46705 L 93.864935,241.16283 L 95.596318,236.9439 L 97.447108,232.8182 L 99.410404,228.79366 L 101.48165,224.87226 L 103.6631,221.04607 L 105.97085,217.2774 L 109.82627,211.50736 L 112.77698,207.45108 L 115.86315,203.47612 L 119.08021,199.58447 L 122.40521,195.78606 L 125.82435,192.08681 L 129.31697,188.49268 L 132.86929,185.00765 L 138.53188,179.75731 L 142.37353,176.38137 L 146.21748,173.13633 L 150.06143,170.01429 L 157.67356,164.15104 L 165.20529,158.73208 L 169.34025,155.94164 M -39.236706,153.5948 L -35.898854,155.80838 L -32.248251,157.91885 L -28.31452,159.92022 L -24.125902,161.81248 L -21.205053,163.01052 L -18.190746,164.16095 L -11.908393,166.30712 L -5.3302817,168.25492 L -1.4741637,169.27445 L 2.4568134,170.2305 L 6.6970976,171.17465 L 11.006269,172.04938 L 19.552968,173.5509 L 28.285893,174.79456 L 37.162566,175.78434 L 46.144179,176.5222 L 55.195827,177.01212 L 65.377467,177.26601 L 75.561404,177.2085 L 80.638446,177.0637 L 85.699415,176.83957 L 92.411399,176.41707 L 99.068264,175.85376 L 105.65166,175.14762 M 105.65166,175.14762 C 133.07316,171.88612 155.67695,165.10632 168.97118,156.15551 M 168.97118,156.15551 L 172.05965,153.90224 L 173.51549,152.6923 L 174.86799,151.45658 L 176.02071,150.29027 L 177.077,149.10413 L 178.51905,147.21583 L 179.70391,145.28984 L 180.62242,143.33013 L 181.26308,141.34662 L 181.60982,139.47418 L 181.70626,137.59322 L 181.55471,135.71185 L 181.15516,133.83606 L 180.59488,132.17863 L 179.84398,130.53508 L 178.90712,128.91 L 178.08735,127.70541 L 177.16885,126.51491 L 175.15962,124.29457 L 172.82661,122.13908 L 170.1882,120.05541 L 167.27194,118.04948 L 165.29026,116.82228 L 163.21214,115.6288 L 160.80566,114.34884 L 158.29125,113.11212 L 153.24176,110.87909 L 147.36562,108.62224 L 141.1657,106.55622 L 134.68334,104.68002 L 127.96218,102.99225 L 121.03664,101.49073 L 116.62092,100.64595 L 112.14779,99.872385 L 103.05,98.536689 L 93.793751,97.478882 L 83.954253,96.663659 L 74.032091,96.14755 L 64.068596,95.928967 L 54.107397,96.00791 L 44.192813,96.386364 L 39.178687,96.694801 L 34.194184,97.081782 L 29.418412,97.530652 L 24.434777,98.053903 L 16.62523,99.133725 L 8.7370988,100.44185 L 1.0581573,101.98324 L -6.3649787,103.76245 L -9.9639147,104.7425 L -13.478119,105.78325 L -18.018525,107.26593 L -22.374999,108.85788 L -26.526418,110.55914 L -30.991965,112.63748 L -35.124095,114.85701 L -37.052497,116.01857 L -38.882161,117.21364 L -41.429179,119.06663 L -43.723149,120.98865 L -45.746388,122.97474 L -47.481676,125.01855 L -48.828894,126.97409 L -49.899644,128.96712 L -50.560942,130.72278 C -53.104602,138.68814 -50.684736,130.9901 -50.684736,130.9901 C -53.104602,138.68814 -49.13247,146.53132 -39.236706,153.5948"
         style="stroke:#112a4d;stroke-width:8.14934183;stroke-miterlimit:4;stroke-dasharray:none;stroke-opacity:1"
         id="path2456" />
    </g>
  </g>
</svg>
